<mxfile host="65bd71144e">
    <diagram id="MRwYrZJ_OPTtC_VLjgcP" name="Page-1">
        <mxGraphModel dx="1025" dy="627" grid="1" gridSize="10" guides="1" tooltips="1" connect="1" arrows="1" fold="1" page="1" pageScale="1" pageWidth="827" pageHeight="1169" math="0" shadow="0">
            <root>
                <mxCell id="0"/>
                <mxCell id="1" parent="0"/>
                <mxCell id="2" style="edgeStyle=none;html=1;exitX=0.5;exitY=1;exitDx=0;exitDy=0;entryX=0.5;entryY=0;entryDx=0;entryDy=0;" edge="1" parent="1" source="3" target="5">
                    <mxGeometry relative="1" as="geometry"/>
                </mxCell>
                <mxCell id="3" value="START" style="ellipse;whiteSpace=wrap;html=1;" vertex="1" parent="1">
                    <mxGeometry x="315" y="30" width="80" height="50" as="geometry"/>
                </mxCell>
                <mxCell id="4" style="edgeStyle=none;html=1;exitX=0.5;exitY=1;exitDx=0;exitDy=0;entryX=0.5;entryY=0;entryDx=0;entryDy=0;" edge="1" parent="1" source="5" target="7">
                    <mxGeometry relative="1" as="geometry"/>
                </mxCell>
                <mxCell id="5" value="list_belanja RECORD&amp;nbsp;&lt;span&gt;ARRAY {id INT, nama_barang STRING, harga_barang INT, jumlah_barang INT}&lt;/span&gt;&lt;div&gt;&amp;nbsp;confirm STRING&lt;/div&gt;&lt;div&gt;&amp;nbsp;size INT&lt;/div&gt;&lt;div&gt;&amp;nbsp;pilih INT&lt;/div&gt;&lt;div&gt;&amp;nbsp;nama_barang STRING&lt;/div&gt;&lt;div&gt;&amp;nbsp;harga_barang INT&lt;/div&gt;&lt;div&gt;&amp;nbsp;jumlah_barang INT&lt;/div&gt;" style="shape=hexagon;perimeter=hexagonPerimeter2;whiteSpace=wrap;html=1;fixedSize=1;" vertex="1" parent="1">
                    <mxGeometry x="10" y="120" width="690" height="110" as="geometry"/>
                </mxCell>
                <mxCell id="6" style="edgeStyle=none;html=1;exitX=0.5;exitY=1;exitDx=0;exitDy=0;entryX=0.5;entryY=0;entryDx=0;entryDy=0;" edge="1" parent="1" source="7" target="9">
                    <mxGeometry relative="1" as="geometry"/>
                </mxCell>
                <mxCell id="7" value="STORE size = 0&lt;br&gt;STORE pilih =0" style="rounded=1;whiteSpace=wrap;html=1;" vertex="1" parent="1">
                    <mxGeometry x="270" y="290" width="170" height="60" as="geometry"/>
                </mxCell>
                <mxCell id="8" style="edgeStyle=none;html=1;exitX=0.5;exitY=1;exitDx=0;exitDy=0;entryX=0.5;entryY=0;entryDx=0;entryDy=0;startArrow=none;" edge="1" parent="1" source="22" target="11">
                    <mxGeometry relative="1" as="geometry"/>
                </mxCell>
                <mxCell id="147" style="edgeStyle=orthogonalEdgeStyle;html=1;exitX=1;exitY=0.5;exitDx=0;exitDy=0;fontSize=14;entryX=0.542;entryY=0;entryDx=0;entryDy=0;entryPerimeter=0;" edge="1" parent="1" source="9" target="141">
                    <mxGeometry relative="1" as="geometry">
                        <mxPoint x="340" y="2540" as="targetPoint"/>
                        <Array as="points">
                            <mxPoint x="1480" y="460"/>
                            <mxPoint x="1480" y="2500"/>
                            <mxPoint x="350" y="2500"/>
                        </Array>
                    </mxGeometry>
                </mxCell>
                <mxCell id="9" value="pilih != 2" style="rhombus;whiteSpace=wrap;html=1;" vertex="1" parent="1">
                    <mxGeometry x="315" y="420" width="80" height="80" as="geometry"/>
                </mxCell>
                <mxCell id="10" style="edgeStyle=none;html=1;exitX=0.5;exitY=1;exitDx=0;exitDy=0;entryX=0.5;entryY=0;entryDx=0;entryDy=0;" edge="1" parent="1" source="11" target="14">
                    <mxGeometry relative="1" as="geometry"/>
                </mxCell>
                <mxCell id="11" value="OUTPUT &quot;LIST BARANG YANG DIBELI&quot;" style="rounded=1;whiteSpace=wrap;html=1;" vertex="1" parent="1">
                    <mxGeometry x="295" y="570" width="120" height="60" as="geometry"/>
                </mxCell>
                <mxCell id="12" style="edgeStyle=none;html=1;entryX=0;entryY=0.5;entryDx=0;entryDy=0;startArrow=none;" edge="1" parent="1" source="25" target="16">
                    <mxGeometry relative="1" as="geometry"/>
                </mxCell>
                <mxCell id="13" style="edgeStyle=none;html=1;exitX=0.5;exitY=1;exitDx=0;exitDy=0;entryX=0.5;entryY=0;entryDx=0;entryDy=0;" edge="1" parent="1" source="14" target="19">
                    <mxGeometry relative="1" as="geometry"/>
                </mxCell>
                <mxCell id="14" value="size==0" style="rhombus;whiteSpace=wrap;html=1;" vertex="1" parent="1">
                    <mxGeometry x="315" y="680" width="80" height="80" as="geometry"/>
                </mxCell>
                <mxCell id="15" style="edgeStyle=none;html=1;exitX=1;exitY=0.5;exitDx=0;exitDy=0;" edge="1" parent="1" source="16">
                    <mxGeometry relative="1" as="geometry">
                        <mxPoint x="360" y="1216.39990234375" as="targetPoint"/>
                        <Array as="points">
                            <mxPoint x="720" y="720"/>
                            <mxPoint x="720" y="1216"/>
                        </Array>
                    </mxGeometry>
                </mxCell>
                <mxCell id="16" value="OUTPUT &quot;LIST BARANG YANG DIBELI&quot;" style="rounded=1;whiteSpace=wrap;html=1;" vertex="1" parent="1">
                    <mxGeometry x="470" y="690" width="120" height="60" as="geometry"/>
                </mxCell>
                <mxCell id="17" style="edgeStyle=none;html=1;exitX=0.5;exitY=1;exitDx=0;exitDy=0;entryX=0.5;entryY=0;entryDx=0;entryDy=0;" edge="1" parent="1" source="19" target="21">
                    <mxGeometry relative="1" as="geometry"/>
                </mxCell>
                <mxCell id="18" style="edgeStyle=none;html=1;exitX=1;exitY=0.5;exitDx=0;exitDy=0;entryX=0.5;entryY=0;entryDx=0;entryDy=0;" edge="1" parent="1" source="19">
                    <mxGeometry relative="1" as="geometry">
                        <Array as="points">
                            <mxPoint x="650" y="855"/>
                            <mxPoint x="650" y="1180"/>
                            <mxPoint x="355" y="1180"/>
                        </Array>
                        <mxPoint x="355" y="1240" as="targetPoint"/>
                    </mxGeometry>
                </mxCell>
                <mxCell id="19" value="FOR i FROM &quot;0&quot; IN RANGE list_belanja" style="shape=hexagon;perimeter=hexagonPerimeter2;whiteSpace=wrap;html=1;fixedSize=1;" vertex="1" parent="1">
                    <mxGeometry x="195" y="830" width="320" height="50" as="geometry"/>
                </mxCell>
                <mxCell id="20" style="edgeStyle=none;html=1;exitX=0.5;exitY=1;exitDx=0;exitDy=0;entryX=0.5;entryY=0;entryDx=0;entryDy=0;" edge="1" parent="1" source="21" target="28">
                    <mxGeometry relative="1" as="geometry"/>
                </mxCell>
                <mxCell id="21" value="OUTPUT list_belanja[i].id&lt;br&gt;OUTPUT list_belanja[i].nama_barang&lt;br&gt;OUTPUT list_belanja[i].harga_barang&lt;br&gt;OUTPUT list_belanja[i].jumlah_barang" style="rounded=1;whiteSpace=wrap;html=1;" vertex="1" parent="1">
                    <mxGeometry x="192" y="940" width="326" height="80" as="geometry"/>
                </mxCell>
                <mxCell id="22" value="FALSE" style="text;html=1;align=center;verticalAlign=middle;resizable=0;points=[];autosize=1;strokeColor=none;fillColor=none;" vertex="1" parent="1">
                    <mxGeometry x="330" y="520" width="50" height="20" as="geometry"/>
                </mxCell>
                <mxCell id="23" value="" style="edgeStyle=none;html=1;exitX=0.5;exitY=1;exitDx=0;exitDy=0;entryX=0.5;entryY=0;entryDx=0;entryDy=0;endArrow=none;" edge="1" parent="1" source="9" target="22">
                    <mxGeometry relative="1" as="geometry">
                        <mxPoint x="355" y="500" as="sourcePoint"/>
                        <mxPoint x="355" y="570" as="targetPoint"/>
                    </mxGeometry>
                </mxCell>
                <mxCell id="24" value="FALSE" style="text;html=1;align=center;verticalAlign=middle;resizable=0;points=[];autosize=1;strokeColor=none;fillColor=none;" vertex="1" parent="1">
                    <mxGeometry x="330" y="780" width="50" height="20" as="geometry"/>
                </mxCell>
                <mxCell id="25" value="TRUE" style="text;html=1;align=center;verticalAlign=middle;resizable=0;points=[];autosize=1;strokeColor=none;fillColor=none;" vertex="1" parent="1">
                    <mxGeometry x="400" y="710" width="50" height="20" as="geometry"/>
                </mxCell>
                <mxCell id="26" value="" style="edgeStyle=none;html=1;entryX=0;entryY=0.5;entryDx=0;entryDy=0;endArrow=none;" edge="1" parent="1" source="14" target="25">
                    <mxGeometry relative="1" as="geometry">
                        <mxPoint x="395" y="720" as="sourcePoint"/>
                        <mxPoint x="457" y="720" as="targetPoint"/>
                    </mxGeometry>
                </mxCell>
                <mxCell id="27" style="edgeStyle=none;html=1;exitX=0;exitY=0.5;exitDx=0;exitDy=0;entryX=0;entryY=0.5;entryDx=0;entryDy=0;" edge="1" parent="1" source="28" target="19">
                    <mxGeometry relative="1" as="geometry">
                        <Array as="points">
                            <mxPoint x="110" y="1115"/>
                            <mxPoint x="110" y="855"/>
                        </Array>
                    </mxGeometry>
                </mxCell>
                <mxCell id="28" value="" style="ellipse;whiteSpace=wrap;html=1;aspect=fixed;" vertex="1" parent="1">
                    <mxGeometry x="320" y="1080" width="70" height="70" as="geometry"/>
                </mxCell>
                <mxCell id="30" value="" style="edgeStyle=orthogonalEdgeStyle;html=1;" edge="1" parent="1" source="31" target="33">
                    <mxGeometry relative="1" as="geometry"/>
                </mxCell>
                <mxCell id="31" value="INPUT pilih" style="shape=parallelogram;perimeter=parallelogramPerimeter;whiteSpace=wrap;html=1;fixedSize=1;rounded=1;strokeWidth=1;" vertex="1" parent="1">
                    <mxGeometry x="295" y="1240" width="120" height="60" as="geometry"/>
                </mxCell>
                <mxCell id="32" value="TRUE" style="edgeStyle=orthogonalEdgeStyle;html=1;entryX=0;entryY=0.5;entryDx=0;entryDy=0;" edge="1" parent="1" source="33" target="35">
                    <mxGeometry relative="1" as="geometry">
                        <mxPoint x="450" y="1395" as="targetPoint"/>
                    </mxGeometry>
                </mxCell>
                <mxCell id="142" value="False" style="edgeStyle=none;html=1;exitX=0.5;exitY=1;exitDx=0;exitDy=0;entryX=0.5;entryY=0;entryDx=0;entryDy=0;" edge="1" parent="1" source="33" target="112">
                    <mxGeometry relative="1" as="geometry"/>
                </mxCell>
                <mxCell id="143" value="FALSE&lt;br&gt;" style="edgeStyle=none;html=1;fontSize=14;" edge="1" parent="1" source="33" target="112">
                    <mxGeometry relative="1" as="geometry">
                        <Array as="points">
                            <mxPoint x="355" y="1470"/>
                        </Array>
                    </mxGeometry>
                </mxCell>
                <mxCell id="33" value="pilih == 1" style="rhombus;whiteSpace=wrap;html=1;strokeWidth=1;" vertex="1" parent="1">
                    <mxGeometry x="305" y="1350" width="100" height="90" as="geometry"/>
                </mxCell>
                <mxCell id="34" value="" style="edgeStyle=orthogonalEdgeStyle;html=1;" edge="1" parent="1" source="35" target="36">
                    <mxGeometry relative="1" as="geometry"/>
                </mxCell>
                <mxCell id="35" value="INPUT nama_barang&lt;br&gt;INPUT harga_barang&lt;br&gt;INPUT jumlah_barang" style="shape=parallelogram;perimeter=parallelogramPerimeter;whiteSpace=wrap;html=1;fixedSize=1;rounded=1;strokeWidth=1;" vertex="1" parent="1">
                    <mxGeometry x="475" y="1365" width="165" height="60" as="geometry"/>
                </mxCell>
                <mxCell id="146" style="edgeStyle=orthogonalEdgeStyle;html=1;exitX=1;exitY=0.5;exitDx=0;exitDy=0;fontSize=14;" edge="1" parent="1" source="36">
                    <mxGeometry relative="1" as="geometry">
                        <mxPoint x="360" y="2380" as="targetPoint"/>
                        <Array as="points">
                            <mxPoint x="1340" y="1395"/>
                            <mxPoint x="1340" y="2380"/>
                        </Array>
                    </mxGeometry>
                </mxCell>
                <mxCell id="36" value="list_belanja[size].id = size+1&lt;br&gt;list_belanja[size].nama_barang = nama_barang&lt;br&gt;list_belanja[size].harga_barang = harga_barang&lt;br&gt;list_belanja[size].jumlah_barang = jumlah_barang" style="rounded=1;whiteSpace=wrap;html=1;strokeWidth=1;" vertex="1" parent="1">
                    <mxGeometry x="685" y="1352.5" width="290" height="85" as="geometry"/>
                </mxCell>
                <mxCell id="109" value="TRUE" style="edgeStyle=orthogonalEdgeStyle;html=1;" edge="1" parent="1" source="112" target="114">
                    <mxGeometry relative="1" as="geometry"/>
                </mxCell>
                <mxCell id="110" value="" style="edgeStyle=orthogonalEdgeStyle;html=1;" edge="1" parent="1" source="112">
                    <mxGeometry relative="1" as="geometry">
                        <mxPoint x="355.0000000000002" y="1940" as="targetPoint"/>
                    </mxGeometry>
                </mxCell>
                <mxCell id="111" value="FALSE" style="edgeLabel;html=1;align=center;verticalAlign=middle;resizable=0;points=[];" vertex="1" connectable="0" parent="110">
                    <mxGeometry x="0.1946" y="-2" relative="1" as="geometry">
                        <mxPoint y="-45" as="offset"/>
                    </mxGeometry>
                </mxCell>
                <mxCell id="112" value="pilih == 2" style="rhombus;whiteSpace=wrap;html=1;strokeWidth=1;" vertex="1" parent="1">
                    <mxGeometry x="305" y="1500" width="100" height="90" as="geometry"/>
                </mxCell>
                <mxCell id="113" value="" style="edgeStyle=orthogonalEdgeStyle;html=1;" edge="1" parent="1" source="114" target="116">
                    <mxGeometry relative="1" as="geometry"/>
                </mxCell>
                <mxCell id="114" value="OUTPUT &quot;Total Harga : &quot;" style="rounded=1;whiteSpace=wrap;html=1;strokeWidth=1;" vertex="1" parent="1">
                    <mxGeometry x="465" y="1522.5" width="150" height="45" as="geometry"/>
                </mxCell>
                <mxCell id="115" value="" style="edgeStyle=orthogonalEdgeStyle;html=1;" edge="1" parent="1" source="116" target="119">
                    <mxGeometry relative="1" as="geometry"/>
                </mxCell>
                <mxCell id="116" value="sum = 0" style="rounded=1;whiteSpace=wrap;html=1;strokeWidth=1;" vertex="1" parent="1">
                    <mxGeometry x="665" y="1527.5" width="70" height="35" as="geometry"/>
                </mxCell>
                <mxCell id="117" value="TRUE" style="edgeStyle=orthogonalEdgeStyle;html=1;" edge="1" parent="1" source="119" target="121">
                    <mxGeometry relative="1" as="geometry"/>
                </mxCell>
                <mxCell id="118" value="FALSE" style="edgeStyle=orthogonalEdgeStyle;html=1;" edge="1" parent="1" source="119" target="124">
                    <mxGeometry relative="1" as="geometry">
                        <Array as="points">
                            <mxPoint x="700" y="1710"/>
                            <mxPoint x="700" y="1710"/>
                        </Array>
                    </mxGeometry>
                </mxCell>
                <mxCell id="119" value="size == 0&amp;nbsp;" style="rhombus;whiteSpace=wrap;html=1;strokeWidth=1;fillColor=none;" vertex="1" parent="1">
                    <mxGeometry x="660" y="1600" width="80" height="80" as="geometry"/>
                </mxCell>
                <mxCell id="120" style="edgeStyle=orthogonalEdgeStyle;html=1;" edge="1" parent="1" source="121">
                    <mxGeometry relative="1" as="geometry">
                        <mxPoint x="705" y="2100" as="targetPoint"/>
                        <Array as="points">
                            <mxPoint x="975" y="1640"/>
                            <mxPoint x="975" y="2100"/>
                        </Array>
                    </mxGeometry>
                </mxCell>
                <mxCell id="121" value="OUTPUT&amp;nbsp;&lt;br&gt;&quot;Barang Belanja Kosong&quot;" style="rounded=1;whiteSpace=wrap;html=1;strokeWidth=1;" vertex="1" parent="1">
                    <mxGeometry x="815" y="1610" width="120" height="60" as="geometry"/>
                </mxCell>
                <mxCell id="122" value="" style="edgeStyle=orthogonalEdgeStyle;html=1;" edge="1" parent="1" source="124" target="126">
                    <mxGeometry relative="1" as="geometry"/>
                </mxCell>
                <mxCell id="123" style="edgeStyle=orthogonalEdgeStyle;html=1;entryX=0.5;entryY=0;entryDx=0;entryDy=0;" edge="1" parent="1" source="124" target="130">
                    <mxGeometry relative="1" as="geometry">
                        <Array as="points">
                            <mxPoint x="945" y="1765"/>
                            <mxPoint x="945" y="2080"/>
                            <mxPoint x="700" y="2080"/>
                        </Array>
                    </mxGeometry>
                </mxCell>
                <mxCell id="124" value="FOR i FROM &quot;0&quot; IN RANGE list_belanja" style="shape=hexagon;perimeter=hexagonPerimeter2;whiteSpace=wrap;html=1;fixedSize=1;strokeWidth=1;" vertex="1" parent="1">
                    <mxGeometry x="555" y="1740" width="290" height="50" as="geometry"/>
                </mxCell>
                <mxCell id="125" value="" style="edgeStyle=orthogonalEdgeStyle;html=1;" edge="1" parent="1" source="126" target="128">
                    <mxGeometry relative="1" as="geometry">
                        <Array as="points">
                            <mxPoint x="700" y="1900"/>
                        </Array>
                    </mxGeometry>
                </mxCell>
                <mxCell id="126" value="STORE sum = sum +&amp;nbsp;&lt;br&gt;(list_belanja[i].harga_barang*list_belanja[i].jumlah_barang" style="rounded=1;whiteSpace=wrap;html=1;strokeWidth=1;" vertex="1" parent="1">
                    <mxGeometry x="520" y="1850" width="360" height="70" as="geometry"/>
                </mxCell>
                <mxCell id="127" style="edgeStyle=orthogonalEdgeStyle;html=1;entryX=0;entryY=0.5;entryDx=0;entryDy=0;" edge="1" parent="1" source="128" target="124">
                    <mxGeometry relative="1" as="geometry">
                        <Array as="points">
                            <mxPoint x="475" y="1990"/>
                            <mxPoint x="475" y="1765"/>
                        </Array>
                    </mxGeometry>
                </mxCell>
                <mxCell id="128" value="" style="ellipse;whiteSpace=wrap;html=1;aspect=fixed;strokeWidth=1;fillColor=none;" vertex="1" parent="1">
                    <mxGeometry x="660" y="1970" width="80" height="80" as="geometry"/>
                </mxCell>
                <mxCell id="129" value="" style="edgeStyle=orthogonalEdgeStyle;html=1;" edge="1" parent="1" source="130" target="132">
                    <mxGeometry relative="1" as="geometry"/>
                </mxCell>
                <mxCell id="130" value="OUTPUT sum&lt;br&gt;OUTPUT &quot;Konfirmasi Pembayaran (yes/no):&quot;" style="rounded=1;whiteSpace=wrap;html=1;strokeWidth=1;" vertex="1" parent="1">
                    <mxGeometry x="595" y="2130" width="210" height="60" as="geometry"/>
                </mxCell>
                <mxCell id="131" value="" style="edgeStyle=orthogonalEdgeStyle;html=1;" edge="1" parent="1" source="132" target="136">
                    <mxGeometry relative="1" as="geometry"/>
                </mxCell>
                <mxCell id="132" value="INPUT confirm" style="shape=parallelogram;perimeter=parallelogramPerimeter;whiteSpace=wrap;html=1;fixedSize=1;rounded=1;strokeWidth=1;" vertex="1" parent="1">
                    <mxGeometry x="875" y="2130" width="120" height="60" as="geometry"/>
                </mxCell>
                <mxCell id="133" value="TRUE" style="edgeStyle=orthogonalEdgeStyle;html=1;" edge="1" parent="1" source="136" target="138">
                    <mxGeometry relative="1" as="geometry">
                        <Array as="points">
                            <mxPoint x="1110" y="2220"/>
                            <mxPoint x="1110" y="2220"/>
                        </Array>
                    </mxGeometry>
                </mxCell>
                <mxCell id="134" style="edgeStyle=orthogonalEdgeStyle;html=1;" edge="1" parent="1" source="136">
                    <mxGeometry relative="1" as="geometry">
                        <mxPoint x="1335" y="2160" as="targetPoint"/>
                    </mxGeometry>
                </mxCell>
                <mxCell id="135" value="FALSE" style="edgeLabel;html=1;align=center;verticalAlign=middle;resizable=0;points=[];" vertex="1" connectable="0" parent="134">
                    <mxGeometry x="-0.23" y="4" relative="1" as="geometry">
                        <mxPoint x="15" y="4" as="offset"/>
                    </mxGeometry>
                </mxCell>
                <mxCell id="136" value="confirm ==&quot;yes&quot;" style="rhombus;whiteSpace=wrap;html=1;strokeWidth=1;" vertex="1" parent="1">
                    <mxGeometry x="1055" y="2120" width="110" height="80" as="geometry"/>
                </mxCell>
                <mxCell id="137" style="edgeStyle=orthogonalEdgeStyle;html=1;" edge="1" parent="1" source="138">
                    <mxGeometry relative="1" as="geometry">
                        <mxPoint x="1110" y="2380" as="targetPoint"/>
                    </mxGeometry>
                </mxCell>
                <mxCell id="138" value="OUTPUT&amp;nbsp;&lt;br&gt;&quot; Terimakasih Telah Berbelanja Di Toko Kami&amp;nbsp;" style="shape=parallelogram;perimeter=parallelogramPerimeter;whiteSpace=wrap;html=1;fixedSize=1;rounded=1;strokeWidth=1;" vertex="1" parent="1">
                    <mxGeometry x="945" y="2280" width="330" height="60" as="geometry"/>
                </mxCell>
                <mxCell id="139" style="edgeStyle=orthogonalEdgeStyle;html=1;" edge="1" parent="1" target="140">
                    <mxGeometry relative="1" as="geometry">
                        <mxPoint x="345" y="2351.54296875" as="targetPoint"/>
                        <mxPoint x="355.0000000000002" y="2000" as="sourcePoint"/>
                    </mxGeometry>
                </mxCell>
                <mxCell id="145" style="edgeStyle=orthogonalEdgeStyle;html=1;exitX=0;exitY=0.5;exitDx=0;exitDy=0;fontSize=14;entryX=0;entryY=0.5;entryDx=0;entryDy=0;" edge="1" parent="1" source="140" target="9">
                    <mxGeometry relative="1" as="geometry">
                        <mxPoint x="315" y="430.90909090909093" as="targetPoint"/>
                        <Array as="points">
                            <mxPoint x="100" y="2440"/>
                            <mxPoint x="100" y="460"/>
                        </Array>
                    </mxGeometry>
                </mxCell>
                <mxCell id="140" value="" style="ellipse;whiteSpace=wrap;html=1;aspect=fixed;strokeWidth=1;fillColor=none;" vertex="1" parent="1">
                    <mxGeometry x="315" y="2400.00296875" width="80" height="80" as="geometry"/>
                </mxCell>
                <mxCell id="141" value="END" style="ellipse;whiteSpace=wrap;html=1;strokeWidth=1;labelBackgroundColor=#000000;" vertex="1" parent="1">
                    <mxGeometry x="285" y="2660" width="120" height="80" as="geometry"/>
                </mxCell>
                <mxCell id="144" value="OUTPUT&amp;nbsp;&lt;br&gt;&quot;MASUKKAN NOMOR YANG BENAR&quot;" style="shape=parallelogram;perimeter=parallelogramPerimeter;whiteSpace=wrap;html=1;fixedSize=1;rounded=1;strokeWidth=1;" vertex="1" parent="1">
                    <mxGeometry x="255" y="1940" width="195" height="60" as="geometry"/>
                </mxCell>
            </root>
        </mxGraphModel>
    </diagram>
</mxfile>